<svg width="24" height="24" viewBox="0 0 24 24" fill="none" xmlns="http://www.w3.org/2000/svg">
<g clip-path="url(#clip0_171_545)">
<path d="M7.539 22.4999C16.596 22.4999 21.5505 14.9954 21.5505 8.49894C21.5525 8.28794 21.5495 8.07694 21.5415 7.86594C22.5058 7.16731 23.3382 6.30287 24 5.31294C23.0987 5.70935 22.144 5.97115 21.1665 6.08994C22.1964 5.4745 22.9677 4.50596 23.337 3.36444C22.3699 3.93852 21.3108 4.34096 20.2065 4.55394C19.4643 3.76348 18.4821 3.23982 17.4121 3.06408C16.3421 2.88834 15.2441 3.07032 14.288 3.58185C13.3319 4.09337 12.5712 4.90588 12.1237 5.89353C11.6761 6.88118 11.5668 7.98884 11.8125 9.04494C9.85452 8.94723 7.93897 8.43881 6.19024 7.55269C4.44152 6.66657 2.89871 5.42256 1.662 3.90144C1.03437 4.98615 0.842925 6.26902 1.12651 7.48971C1.4101 8.71041 2.14747 9.7775 3.189 10.4744C2.40811 10.4492 1.64429 10.2395 0.96 9.86244V9.92994C0.961909 11.066 1.35573 12.1666 2.07499 13.046C2.79424 13.9254 3.79488 14.5297 4.908 14.7569C4.48541 14.8734 4.04885 14.9315 3.6105 14.9294C3.30138 14.9326 2.99275 14.904 2.6895 14.8439C3.00359 15.8224 3.61616 16.6779 4.44125 17.2905C5.26634 17.903 6.26253 18.2419 7.29 18.2594C5.54415 19.6289 3.38887 20.3721 1.17 20.3699C0.778948 20.3729 0.388119 20.3503 0 20.3024C2.25213 21.7386 4.8679 22.5011 7.539 22.4999Z" fill="white"/>
</g>
<defs>
<clipPath id="clip0_171_545">
<rect width="24" height="24" fill="white"/>
</clipPath>
</defs>
</svg>
