<svg width="24" height="24" viewBox="0 0 24 24" fill="none" xmlns="http://www.w3.org/2000/svg">
<g clip-path="url(#clip0_171_549)">
<path d="M23.9991 12.0732C23.9991 5.40417 18.6261 -0.00183105 11.9991 -0.00183105C5.36909 -0.000331055 -0.00390625 5.40417 -0.00390625 12.0747C-0.00390625 18.1002 4.38509 23.0952 10.1211 24.0012V15.5637H7.07609V12.0747H10.1241V9.41217C10.1241 6.38667 11.9166 4.71567 14.6571 4.71567C15.9711 4.71567 17.3436 4.95117 17.3436 4.95117V7.92117H15.8301C14.3406 7.92117 13.8756 8.85267 13.8756 9.80817V12.0732H17.2026L16.6716 15.5622H13.8741V23.9997C19.6101 23.0937 23.9991 18.0987 23.9991 12.0732Z" fill="white"/>
</g>
<defs>
<clipPath id="clip0_171_549">
<rect width="24" height="24" fill="white"/>
</clipPath>
</defs>
</svg>
