<svg width="56" height="56" viewBox="0 0 56 56" fill="none" xmlns="http://www.w3.org/2000/svg">
<path d="M33.6143 31.5144C35.0668 29.5325 35.7173 27.0752 35.4358 24.6342C35.1543 22.1932 33.9615 19.9484 32.096 18.3491C30.2305 16.7498 27.83 15.9138 25.3746 16.0085C22.9192 16.1031 20.5901 17.1213 18.8532 18.8594C17.1164 20.5975 16.0998 22.9274 16.007 25.3828C15.9141 27.8382 16.7518 30.2382 18.3525 32.1025C19.9531 33.9668 22.1987 35.158 24.6399 35.4378C27.0811 35.7176 29.5379 35.0653 31.5188 33.6114H31.5173C31.5613 33.6714 31.6103 33.7289 31.6643 33.7839L37.4393 39.5589C37.7206 39.8404 38.1022 39.9986 38.5001 39.9987C38.898 39.9989 39.2796 39.841 39.5611 39.5597C39.8426 39.2784 40.0008 38.8969 40.0009 38.499C40.001 38.1011 39.8431 37.7194 39.5618 37.4379L33.7868 31.6629C33.7332 31.6086 33.6756 31.56 33.6143 31.5144ZM34.0013 25.7484C34.0013 26.8318 33.788 27.9046 33.3734 28.9056C32.9588 29.9065 32.3511 30.816 31.585 31.5821C30.8189 32.3482 29.9094 32.9558 28.9085 33.3704C27.9075 33.785 26.8348 33.9984 25.7513 33.9984C24.6679 33.9984 23.5951 33.785 22.5942 33.3704C21.5933 32.9558 20.6838 32.3482 19.9177 31.5821C19.1516 30.816 18.5439 29.9065 18.1293 28.9056C17.7147 27.9046 17.5013 26.8318 17.5013 25.7484C17.5013 23.5604 18.3705 21.462 19.9177 19.9148C21.4649 18.3676 23.5633 17.4984 25.7513 17.4984C27.9394 17.4984 30.0378 18.3676 31.585 19.9148C33.1322 21.462 34.0013 23.5604 34.0013 25.7484Z" fill="black"/>
</svg>
