<svg width="80" height="34" viewBox="0 0 80 34" fill="none" xmlns="http://www.w3.org/2000/svg">
<path d="M29.2413 8.85878C29.4229 8.82212 29.6444 8.79645 29.9059 8.78179C30.1674 8.75978 30.3816 8.74879 30.5487 8.74879C30.7375 8.74879 30.9518 8.75612 31.1915 8.77078C31.4312 8.78545 31.6563 8.80745 31.8669 8.83678L31.2895 11.4328L31.1152 11.4548C31.1443 11.9535 31.1697 12.5108 31.1915 13.1268C31.2205 13.7355 31.2423 14.3551 31.2568 14.9858C31.2786 15.6091 31.2895 16.1921 31.2895 16.7348V23.8628C31.1007 23.8921 30.9191 23.9141 30.7448 23.9288C30.5705 23.9435 30.4107 23.9508 30.2654 23.9508C30.1274 23.9508 29.9676 23.9435 29.7861 23.9288C29.6045 23.9141 29.4229 23.8921 29.2413 23.8628V8.85878ZM32.5969 14.4908C32.3209 13.9481 32.0667 13.4238 31.8343 12.9178C31.6091 12.4045 31.3912 11.9131 31.1806 11.4438L30.1565 10.1788L31.8669 8.83678L36.6061 18.1978C36.8894 18.7698 37.1509 19.3271 37.3906 19.8698C37.6375 20.4125 37.8663 20.9111 38.0769 21.3658L39.1664 22.5098L37.3579 23.8628L32.5969 14.4908ZM40.0053 8.86979V23.8408C39.831 23.8775 39.6203 23.9031 39.3734 23.9178C39.1264 23.9398 38.894 23.9508 38.6761 23.9508C38.4655 23.9508 38.244 23.9435 38.0116 23.9288C37.7864 23.9141 37.5685 23.8921 37.3579 23.8628L37.968 21.3768L38.1532 21.3548C38.1169 20.7755 38.0842 20.1631 38.0551 19.5178C38.0261 18.8725 38.0043 18.2381 37.9898 17.6148C37.9825 16.9915 37.9789 16.4268 37.9789 15.9208V10.1348C37.9789 9.64345 38.0624 9.29145 38.2294 9.07878C38.3965 8.85878 38.7052 8.74879 39.1555 8.74879H39.8745L40.0053 8.86979Z" fill="black"/>
<path d="M44.03 8.97978L44.1607 8.83678H46.1545V10.6518C46.1545 10.9598 46.1581 11.2091 46.1654 11.3998C46.1726 11.5905 46.1763 11.8361 46.1763 12.1368V20.9808C46.1763 21.1641 46.1726 21.3365 46.1654 21.4978C46.1581 21.6591 46.1545 21.8388 46.1545 22.0368V23.8848H45.2829C44.8979 23.8848 44.5929 23.7638 44.3677 23.5218C44.1426 23.2725 44.03 22.9315 44.03 22.4988V8.97978ZM51.6999 15.3488C51.7362 15.4955 51.7616 15.6568 51.7761 15.8328C51.7979 16.0015 51.8088 16.1481 51.8088 16.2728C51.8088 16.3975 51.7979 16.5441 51.7761 16.7128C51.7616 16.8815 51.7362 17.0428 51.6999 17.1968H47.5272C47.3602 17.1968 47.1532 17.1968 46.9062 17.1968C46.6593 17.1895 46.4051 17.1858 46.1436 17.1858C45.8821 17.1785 45.6424 17.1748 45.4245 17.1748V15.3708C45.6424 15.3708 45.8821 15.3708 46.1436 15.3708C46.4051 15.3635 46.6593 15.3598 46.9062 15.3598C47.1532 15.3525 47.3602 15.3488 47.5272 15.3488H51.6999ZM52.8656 8.83678C52.8946 8.99812 52.9128 9.15578 52.9201 9.30978C52.9273 9.45645 52.931 9.59212 52.931 9.71679C52.931 9.84145 52.9164 9.99912 52.8874 10.1898C52.8656 10.3731 52.8256 10.5491 52.7675 10.7178H47.5272C47.3602 10.7178 47.1532 10.7178 46.9062 10.7178C46.6593 10.7178 46.4051 10.7141 46.1436 10.7068C45.8821 10.6995 45.6424 10.6921 45.4245 10.6848V8.83678H52.8656ZM53.2796 21.9818C53.2796 22.6711 53.1743 23.1625 52.9637 23.4558C52.7603 23.7418 52.3826 23.8848 51.8306 23.8848H45.4245V22.0808C45.7586 22.0588 46.0927 22.0368 46.4268 22.0148C46.7609 21.9928 47.1459 21.9818 47.5817 21.9818H53.2796Z" fill="black"/>
<path d="M59.7386 8.83678C59.9129 8.80745 60.1236 8.78545 60.3705 8.77078C60.6174 8.75612 60.8317 8.74879 61.0133 8.74879C61.1876 8.74879 61.3982 8.75612 61.6452 8.77078C61.8921 8.78545 62.0919 8.81112 62.2444 8.84778L67.147 23.7308C66.9872 23.8261 66.7911 23.8958 66.5587 23.9398C66.3335 23.9911 66.1011 24.0168 65.8614 24.0168C65.5128 24.0168 65.2404 23.9361 65.0443 23.7748C64.8555 23.6135 64.6921 23.3018 64.5541 22.8398L62.0592 14.9748C61.8631 14.3368 61.6597 13.6658 61.4491 12.9618C61.2457 12.2578 61.0714 11.6235 60.9261 11.0588H60.8063C60.6973 11.5355 60.5593 12.0708 60.3923 12.6648C60.2325 13.2588 60.0945 13.7465 59.9783 14.1278L56.8842 23.8848C56.7535 23.9141 56.6046 23.9361 56.4375 23.9508C56.2777 23.9655 56.1107 23.9728 55.9364 23.9728C55.7475 23.9728 55.5587 23.9581 55.3698 23.9288C55.1883 23.8995 55.0212 23.8628 54.8687 23.8188L54.8033 23.7198L59.7386 8.83678ZM59.3791 20.1888C59.3137 20.1888 59.1721 20.1888 58.9542 20.1888C58.7436 20.1815 58.5293 20.1778 58.3114 20.1778C58.1008 20.1705 57.9591 20.1668 57.8865 20.1668H56.8951L57.5815 18.3518H58.453C58.5257 18.3518 58.6564 18.3518 58.8452 18.3518C59.0341 18.3445 59.2193 18.3408 59.4009 18.3408C59.5897 18.3335 59.7168 18.3298 59.7822 18.3298H62.0156C62.081 18.3298 62.2081 18.3335 62.3969 18.3408C62.593 18.3408 62.7855 18.3445 62.9743 18.3518C63.1704 18.3518 63.3048 18.3518 63.3774 18.3518H64.2708L64.8591 20.1668H63.8677C63.8023 20.1668 63.6571 20.1705 63.4319 20.1778C63.214 20.1778 62.9961 20.1815 62.7782 20.1888C62.5676 20.1888 62.4296 20.1888 62.3642 20.1888H59.3791Z" fill="black"/>
<path d="M79.3136 13.2258C79.3136 13.9078 79.1902 14.5201 78.9432 15.0628C78.7035 15.5981 78.3694 16.0528 77.9409 16.4268C77.5196 16.7935 77.0403 17.0648 76.5028 17.2408C76.8587 17.3655 77.1637 17.6001 77.418 17.9448C77.6722 18.2821 77.8792 18.6635 78.039 19.0888L79.0304 21.7398C79.1974 22.1871 79.35 22.5245 79.4879 22.7518C79.6332 22.9791 79.8039 23.1698 80 23.3238C79.8547 23.5438 79.6368 23.7161 79.3463 23.8408C79.0558 23.9581 78.7762 24.0168 78.5074 24.0168C78.0934 24.0168 77.7884 23.8995 77.5923 23.6648C77.3962 23.4301 77.2146 23.0891 77.0475 22.6418L75.9254 19.5948C75.7365 19.0741 75.486 18.6415 75.1737 18.2968C74.8686 17.9448 74.3711 17.7688 73.6811 17.7688H70.9138V16.0198C71.2334 16.0051 71.6002 15.9905 72.0142 15.9758C72.4355 15.9611 72.8495 15.9538 73.2562 15.9538C73.6629 15.9465 74.0152 15.9428 74.313 15.9428C75.0393 15.9428 75.5985 15.8071 75.9908 15.5358C76.383 15.2645 76.6553 14.9235 76.8079 14.5128C76.9604 14.0948 77.0366 13.6658 77.0366 13.2258C77.0366 12.7785 76.9604 12.3495 76.8079 11.9388C76.6553 11.5208 76.383 11.1798 75.9908 10.9158C75.5985 10.6518 75.0393 10.5198 74.313 10.5198C74.0951 10.5198 73.8372 10.5198 73.5395 10.5198C73.2489 10.5198 72.9511 10.5198 72.6461 10.5198C72.341 10.5125 72.065 10.5051 71.8181 10.4978V23.8628C71.651 23.8921 71.4695 23.9141 71.2734 23.9288C71.0773 23.9435 70.8884 23.9508 70.7068 23.9508C70.547 23.9508 70.3691 23.9435 70.173 23.9288C69.9769 23.9141 69.7953 23.8921 69.6283 23.8628V8.95778L69.7699 8.82578C70.5834 8.81112 71.375 8.79645 72.1449 8.78179C72.9221 8.75978 73.6775 8.74879 74.411 8.74879C75.4206 8.74879 76.2922 8.92112 77.0257 9.26579C77.7593 9.61045 78.3222 10.1165 78.7144 10.7838C79.1139 11.4511 79.3136 12.2651 79.3136 13.2258Z" fill="black"/>
<path d="M0 8.81738C0.139675 8.78811 0.30263 8.76616 0.488864 8.75153C0.675098 8.7369 0.841378 8.72958 0.987705 8.72958C1.15399 8.72958 1.32692 8.7369 1.5065 8.75153C1.68608 8.76616 1.85236 8.78811 2.00534 8.81738V23.8084C1.85236 23.8377 1.68608 23.8596 1.5065 23.8742C1.32692 23.8889 1.15399 23.8962 0.987705 23.8962C0.841378 23.8962 0.675098 23.8889 0.488864 23.8742C0.30263 23.8596 0.139675 23.8377 0 23.8084V8.81738Z" fill="black"/>
<path d="M19.784 8.81738C19.9237 8.78811 20.0867 8.76616 20.2729 8.75153C20.4591 8.7369 20.6254 8.72958 20.7717 8.72958C20.938 8.72958 21.1109 8.7369 21.2905 8.75153C21.4701 8.76616 21.6364 8.78811 21.7894 8.81738V23.8084C21.6364 23.8377 21.4701 23.8596 21.2905 23.8742C21.1109 23.8889 20.938 23.8962 20.7717 23.8962C20.6254 23.8962 20.4591 23.8889 20.2729 23.8742C20.0867 23.8596 19.9237 23.8377 19.784 23.8084V8.81738Z" fill="black"/>
<path d="M19.784 8.81738C19.9237 8.78811 20.0867 8.76616 20.2729 8.75153C20.4591 8.7369 20.6254 8.72958 20.7717 8.72958C20.938 8.72958 21.1109 8.7369 21.2905 8.75153C21.4701 8.76616 21.6364 8.78811 21.7894 8.81738V23.8084C21.6364 23.8377 21.4701 23.8596 21.2905 23.8742C21.1109 23.8889 20.938 23.8962 20.7717 23.8962C20.6254 23.8962 20.4591 23.8889 20.2729 23.8742C20.0867 23.8596 19.9237 23.8377 19.784 23.8084V8.81738Z" fill="black"/>
<path d="M10.2013 0.586575C10.341 0.557309 10.5039 0.53536 10.6902 0.520728C10.8764 0.506095 9.79557 0.498779 9.9419 0.498779C10.1082 0.498779 10.2811 0.506095 10.4607 0.520728C10.6403 0.53536 10.8066 0.557309 10.9595 0.586575V13.915V17.2402V33.411C10.8066 33.4403 10.6403 33.4622 10.4607 33.4768C10.2811 33.4915 10.1082 33.4988 9.9419 33.4988C9.79557 33.4988 10.8764 33.4915 10.6902 33.4768C10.5039 33.4622 10.341 33.4403 10.2013 33.411V17.1963V13.9589V0.586575Z" fill="black"/>
<path d="M10.2013 0.586575C10.341 0.557309 10.5039 0.53536 10.6902 0.520728C10.8764 0.506095 9.79557 0.498779 9.9419 0.498779C10.1082 0.498779 10.2811 0.506095 10.4607 0.520728C10.6403 0.53536 10.8066 0.557309 10.9595 0.586575V13.915V17.2402V33.411C10.8066 33.4403 10.6403 33.4622 10.4607 33.4768C10.2811 33.4915 10.1082 33.4988 9.9419 33.4988C9.79557 33.4988 10.8764 33.4915 10.6902 33.4768C10.5039 33.4622 10.341 33.4403 10.2013 33.411V17.1963V13.9589V0.586575Z" fill="black"/>
<path d="M10.9595 13.915V17.2402L12.471 15.5776L10.9595 13.915Z" fill="black"/>
<path d="M10.2013 17.1963V13.9589L8.72971 15.5776L10.2013 17.1963Z" fill="black"/>
</svg>
